<svg aria-hidden="true" style="position: absolute; width: 0; height: 0; overflow: hidden;" version="1.1" xmlns="http://www.w3.org/2000/svg" xmlns:xlink="http://www.w3.org/1999/xlink">
<defs>
<symbol id="icon-company" viewBox="0 0 28 32">
<path d="M17.55 0.223c-0.337 0.12-1.27 0.455-2.075 0.74-4.505 1.605-4.558 1.625-4.602 1.688-0.037 0.050-0.082 0.382-0.24 1.692l-0.193 1.63-1.065 0.388c-0.585 0.213-1.742 0.635-2.575 0.94s-1.94 0.71-2.462 0.9c-0.522 0.19-1.63 0.595-2.462 0.9s-1.565 0.572-1.63 0.595c-0.112 0.037-0.12 0.045-0.135 0.152-0.025 0.168 0.038 17.065 0.063 17.133 0.015 0.038 1.232 0.892 3.598 2.52 1.968 1.355 3.607 2.473 3.643 2.488 0.048 0.018 0.082 0.012 0.133-0.017 0.055-0.032 1.382-0.587 2.68-1.12 0.158-0.065 0.945-0.39 1.75-0.725s1.592-0.66 1.75-0.725c0.158-0.065 1.11-0.457 2.112-0.875 3.387-1.405 5.198-2.155 5.55-2.3 0.192-0.078 1.008-0.418 1.813-0.75s1.61-0.668 1.788-0.74c1.84-0.76 2.175-0.902 2.215-0.962 0.038-0.052 0.050-0.233 0.098-1.523 0.047-1.337 0.105-2.895 0.175-4.75 0.015-0.392 0.047-1.242 0.073-1.89 0.023-0.645 0.050-1.188 0.060-1.203s0.070-0.040 0.133-0.055c0.24-0.060 0.42-0.188 0.527-0.37 0.128-0.22 0.133-0.285 0.108-1.607-0.012-0.668-0.035-1.938-0.050-2.825-0.012-0.887-0.032-2.098-0.040-2.692l-0.017-1.080-0.345-0.357c-0.837-0.878-1.692-1.515-2.718-2.030-1.285-0.645-2.79-1.020-4.33-1.080l-0.387-0.015-0.95 0.35c-0.523 0.19-0.953 0.348-0.953 0.345-0.003-0.002-0.045-0.623-0.095-1.377-0.052-0.757-0.102-1.415-0.115-1.465-0.023-0.085-0.102-0.15-0.183-0.145-0.017 0-0.305 0.1-0.642 0.22zM17.095 2.855l-0.008 0.68-0.113 0.045c-0.063 0.022-0.703 0.26-1.425 0.522s-1.768 0.645-2.325 0.85c-0.555 0.202-1.012 0.367-1.012 0.365-0.002-0.003 0.030-0.338 0.072-0.742l0.078-0.737 0.438-0.155c0.24-0.085 0.568-0.203 0.725-0.257s1.012-0.36 1.9-0.675c0.888-0.313 1.627-0.572 1.645-0.572 0.025-0.002 0.030 0.14 0.025 0.678z"></path>
</symbol>
<symbol id="icon-password" viewBox="0 0 23 32">
<path d="M10.65 0.015c-1.463 0.133-2.45 0.398-3.612 0.973-0.702 0.347-1.19 0.657-1.775 1.128-1.355 1.087-2.44 2.627-3 4.26-0.29 0.848-0.445 1.607-0.512 2.515-0.015 0.21-0.025 1.41-0.025 3.018v2.668h-0.823c-0.715 0-0.83 0.005-0.863 0.040-0.037 0.035-0.040 0.857-0.040 8.67 0 8.33 0.003 8.633 0.045 8.672s0.858 0.043 11.21 0.043c10.782 0 11.163-0.003 11.203-0.045s0.043-0.68 0.043-8.675c0-7.81-0.003-8.63-0.040-8.665-0.032-0.035-0.148-0.040-0.863-0.040h-0.823v-2.67c0-2.65-0.008-3.002-0.090-3.643-0.328-2.58-1.747-4.945-3.898-6.49-0.402-0.292-0.79-0.52-1.325-0.785-1.025-0.507-1.977-0.787-3.137-0.927-0.32-0.037-1.425-0.068-1.675-0.045zM12.262 2.723c0.79 0.125 1.412 0.325 2.12 0.683 1.297 0.657 2.36 1.73 3.015 3.045 0.345 0.695 0.523 1.258 0.66 2.087 0.050 0.315 0.052 0.405 0.060 3.18l0.010 2.857h-13.755l0.010-2.857c0.008-2.775 0.010-2.865 0.060-3.18 0.138-0.83 0.315-1.393 0.66-2.088 0.91-1.827 2.577-3.147 4.58-3.623 0.21-0.050 0.807-0.145 1.030-0.163 0.318-0.025 1.232 0.010 1.55 0.058z"></path>
</symbol>
<symbol id="icon-close-black-18dp-2-1" viewBox="0 0 32 32">
<path d="M26.667 7.303l-1.97-1.97-7.808 7.808-7.808-7.808-1.97 1.97 7.808 7.808-7.808 7.808 1.97 1.97 7.808-7.808 7.808 7.808 1.97-1.97-7.808-7.808 7.808-7.808z"></path>
</symbol>
<symbol id="icon-email-black-18dp-1" viewBox="0 0 32 32">
<path d="M26.667 5.333h-21.333c-1.467 0-2.653 1.2-2.653 2.667l-0.013 16c0 1.467 1.2 2.667 2.667 2.667h21.333c1.467 0 2.667-1.2 2.667-2.667v-16c0-1.467-1.2-2.667-2.667-2.667zM26.133 11l-9.427 5.893c-0.427 0.267-0.987 0.267-1.413 0l-9.427-5.893c-0.333-0.213-0.533-0.573-0.533-0.96 0-0.893 0.973-1.427 1.733-0.96l8.933 5.587 8.933-5.587c0.76-0.467 1.733 0.067 1.733 0.96 0 0.387-0.2 0.747-0.533 0.96z"></path>
</symbol>
<symbol id="icon-person-black-18dp-1" viewBox="0 0 32 32">
<path d="M16 16c2.947 0 5.333-2.387 5.333-5.333s-2.387-5.333-5.333-5.333c-2.947 0-5.333 2.387-5.333 5.333s2.387 5.333 5.333 5.333zM16 18.667c-3.56 0-10.667 1.787-10.667 5.333v1.333c0 0.733 0.6 1.333 1.333 1.333h18.667c0.733 0 1.333-0.6 1.333-1.333v-1.333c0-3.547-7.107-5.333-10.667-5.333z"></path>
</symbol>
<symbol id="icon-phone-black-18dp-1" viewBox="0 0 32 32">
<path d="M24.882 19.773l-3.268-0.373c-0.785-0.090-1.557 0.18-2.11 0.733l-2.367 2.367c-3.641-1.853-6.626-4.825-8.478-8.478l2.38-2.38c0.553-0.553 0.823-1.325 0.733-2.11l-0.373-3.242c-0.154-1.299-1.248-2.277-2.56-2.277h-2.226c-1.454 0-2.663 1.209-2.573 2.663 0.682 10.987 9.469 19.761 20.443 20.443 1.454 0.090 2.663-1.119 2.663-2.573v-2.226c0.013-1.299-0.965-2.393-2.264-2.547v0z"></path>
</symbol>
<symbol id="icon-icon-send" viewBox="0 0 32 32">
<path fill="#fff" style="fill: var(--color1, #fff)" d="M32 0l-32 18 10.227 3.788 15.773-14.788-11.998 16.186 0.010 0.004-0.012-0.004v8.814l5.735-6.691 7.265 2.691 5-28z"></path>
</symbol>
<symbol id="icon-menu_40px" viewBox="0 0 32 32">
<path d="M6.4 11.733v-2.133h19.2v2.133h-19.2zM6.4 17.067h19.2v-2.133h-19.2v2.133zM6.4 22.4h19.2v-2.133h-19.2v2.133z"></path>
</symbol>
<symbol id="icon-close_40px" viewBox="0 0 32 32">
<path d="M23.733 10.304l-1.504-1.504-5.963 5.963-5.963-5.963-1.504 1.504 5.963 5.963-5.963 5.963 1.504 1.504 5.963-5.963 5.963 5.963 1.504-1.504-5.963-5.963 5.963-5.963z"></path>
</symbol>
</defs>
</svg>
